<svg width="597" height="348" viewBox="0 0 597 348" fill="none" xmlns="http://www.w3.org/2000/svg">
<path d="M398.49 209.812C412.703 189.033 438.038 138.477 474.497 58.1443H493.036C523.624 139.095 547.106 189.613 563.482 209.696H525.015C523.779 202.281 521.461 195.174 518.063 188.377C508.484 200.736 495.353 207.301 478.668 208.074C461.984 208.846 447.617 201.663 435.567 186.523C430.932 193.011 429.078 200.736 430.005 209.696L398.49 209.812ZM444.836 165.204C453.796 188.686 464.649 200.465 477.394 200.543C490.216 200.543 500.837 190.308 509.257 169.838C499.061 129.672 489.792 102.482 481.449 88.2692C472.489 101.864 460.285 127.509 444.836 165.204Z" fill="white"/>
<path d="M97.6659 77.6978C99.9102 76.0803 103.033 73.416 107.033 69.7051C119.328 62.664 129.476 59.1434 137.478 59.1434C146.552 59.1434 154.505 61.0464 161.335 64.8524C169.63 69.4197 173.777 75.7948 173.777 83.9778C173.777 97.4893 165.287 110.049 148.309 121.658C180.802 132.124 197.049 147.729 197.049 168.472C197.049 185.504 187.73 199.253 169.093 209.72C153.285 218.664 135.868 223.136 116.84 223.136C105.716 223.136 88.2984 220.329 64.587 214.715C65.9531 206.723 66.8313 197.826 67.2216 188.025C67.4168 181.175 67.4168 172.23 67.2216 161.193C66.8313 147.015 66.6362 138.071 66.6362 134.36C66.6362 115.711 66.5386 105.006 66.3434 102.247C65.3677 89.6869 62.4891 79.5533 57.7078 71.846L50.3895 69.9906V66.7079L89.7621 58.1443C93.3725 63.8534 96.0071 70.3712 97.6659 77.6978ZM98.8369 202.584C107.619 206.77 113.815 209.577 117.425 211.004C125.134 214.144 131.574 215.905 136.746 216.285C146.308 212.574 152.895 209.149 156.505 206.009C161.97 201.251 164.702 194.734 164.702 186.455C164.702 175.513 159.53 164.666 149.187 153.914C140.503 144.874 130.208 137.691 118.304 132.362H98.8369C130.452 127.129 150.504 115.235 150.504 102.39C150.504 95.1581 145.869 88.4499 136.599 82.2651C128.013 76.556 119.865 73.7491 112.156 73.8442L98.8369 86.6896V202.584Z" fill="white"/>
<path d="M297.424 208.348C316.227 195.009 325.629 176.161 325.629 151.804L325.16 58.1443H360.118L358.072 170.507C357.975 177.66 358.754 184.087 360.41 189.79C362.749 198.102 366.548 202.259 371.809 202.259C373.368 202.259 374.927 201.872 376.486 201.099V206.463L347.696 220.092C338.83 212.166 331.962 203.08 327.09 192.835C320.173 199.021 311.746 205.255 301.808 211.537C289.435 219.27 280.228 223.136 274.188 223.136C256.456 223.136 242.329 217.965 231.807 207.623C221.382 197.184 216.17 183.266 216.17 165.867C216.17 158.425 216.755 147.261 217.924 132.376C219.19 117.491 219.824 106.327 219.824 98.8848C219.824 78.0071 217.047 67.6649 211.494 67.8582V58.1443H254.167C251.146 123.967 249.636 157.845 249.636 159.778C249.636 173.793 254.118 185.15 263.081 193.849C271.557 202.162 283.005 206.995 297.424 208.348Z" fill="white"/>
<path d="M31.8411 131.474H545.149V149.806H31.8411V131.474Z" fill="white"/>
<path d="M407.205 249.404L406.246 248.822C406.362 248.299 406.42 247.853 406.42 247.484C406.42 246.651 405.044 245.372 402.291 243.646C399.636 241.96 397.833 241.117 396.883 241.117C394.305 241.117 393.016 242.687 393.016 245.827C393.016 247.203 394.896 248.832 398.657 250.712C400.944 251.72 403.231 252.718 405.519 253.707C408.175 254.909 409.735 255.694 410.2 256.062C411.499 257.09 412.149 258.65 412.149 260.744C412.149 264.349 410.714 267.102 407.845 269.002C405.364 270.649 402.233 271.473 398.453 271.473C391.94 271.473 388.654 269.283 388.596 264.902L388.567 263.826L388.596 263.041L395.778 262.488C395.448 264.272 395.284 265.415 395.284 265.919C395.284 267.044 395.759 268.052 396.708 268.944C397.658 269.816 398.705 270.252 399.849 270.252C401.69 270.252 403.135 269.612 404.181 268.333C405.151 267.131 405.635 265.6 405.635 263.739C405.635 262.072 404.191 260.589 401.303 259.29C398.628 258.146 395.962 257.012 393.306 255.888C390.418 254.298 388.974 252.321 388.974 249.956C388.974 247.165 389.856 244.829 391.62 242.948C392.57 241.96 394.198 240.923 396.505 239.837C398.831 238.732 400.653 238.18 401.971 238.18C402.999 238.18 404.579 238.81 406.711 240.07C408.378 241.039 409.851 242.037 411.131 243.065L407.205 249.404Z" fill="white"/>
<path d="M422.558 282.552L416.423 284.122V249.84C416.423 248.541 416.258 247.039 415.929 245.333C415.502 243.065 414.95 241.873 414.271 241.756C414.155 241.737 413.893 241.747 413.486 241.785L413.224 240.884L421.133 238.645L422.82 244.082C423.905 242.9 425.64 241.582 428.025 240.128C430.642 238.558 432.6 237.773 433.898 237.773C435.876 237.773 437.998 238.684 440.266 240.506C442.282 242.115 443.814 243.898 444.861 245.856C445.985 247.95 446.547 250.363 446.547 253.096C446.547 256.586 445.82 259.697 444.366 262.43C443.319 264.369 441.226 266.307 438.086 268.246C434.945 270.184 432.26 271.231 430.031 271.386L429.508 271.415C427.938 271.512 425.747 270.659 422.936 268.856L422.558 282.552ZM423.169 263.477C424.371 265.396 427.085 267.335 431.311 269.292L431.747 269.322C434.732 269.399 437.01 267.742 438.58 264.349C439.782 261.732 440.383 258.718 440.383 255.306C440.383 249.316 438.095 245.013 433.52 242.396C432.008 241.543 430.806 241.117 429.915 241.117C429.178 241.117 428.538 241.262 427.996 241.553C426.077 242.619 424.758 243.985 424.041 245.653C423.46 247.01 423.169 248.909 423.169 251.352V263.477Z" fill="white"/>
<path d="M481.353 254.289C481.353 262.682 476.904 268.1 468.006 270.543C465.505 271.221 463.8 271.561 462.889 271.561C462.423 271.561 461.687 271.405 460.679 271.095C457.034 269.99 454.214 268.071 452.217 265.338C450.24 262.605 449.251 259.329 449.251 255.51C449.251 249.229 452.198 244.431 458.091 241.117C459.021 240.593 460.456 239.915 462.394 239.081C464.643 238.131 466.068 237.656 466.669 237.656C468.181 237.656 470.109 238.257 472.455 239.459C474.645 240.583 476.303 241.747 477.427 242.948C480.044 245.779 481.353 249.559 481.353 254.289ZM468.849 268.798C471.214 268.391 472.959 266.937 474.083 264.437C474.975 262.498 475.421 260.143 475.421 257.371C475.421 253.688 474.752 250.702 473.415 248.415C472.019 245.992 469.683 244.024 466.407 242.512C464.449 241.601 462.811 241.146 461.493 241.146C459.38 241.146 457.8 242.745 456.753 245.943C455.997 248.211 455.619 250.683 455.619 253.358C455.619 258.166 456.676 261.703 458.789 263.971C460.669 266.007 464.023 267.616 468.849 268.798Z" fill="white"/>
<path d="M515.141 269.816V270.805C513.454 271.425 511.535 271.735 509.383 271.735C508.666 271.735 507.929 271.706 507.173 271.648C505.39 271.512 503.471 270.591 501.416 268.885C500.679 268.284 499.109 266.753 496.706 264.291C495.155 262.682 494.05 261.887 493.391 261.907H492.722L492.431 270.136L485.802 271.473C485.821 269.748 485.86 266.84 485.918 262.75C485.976 259.009 486.005 256.091 486.005 253.998C486.005 252.001 485.966 249.646 485.889 246.932C485.85 245.071 485.772 243.927 485.656 243.501C485.327 242.338 484.532 241.621 483.272 241.349V240.622L491.21 238.383C491.462 239.178 491.782 240.409 492.169 242.076C496.996 238.878 500.156 237.278 501.649 237.278C504.673 237.278 507.358 238.538 509.703 241.058C512.049 243.559 513.221 246.321 513.221 249.345C513.221 252.389 512.165 254.793 510.052 256.557C509.451 257.041 507.086 258.379 502.957 260.569C504.469 262.585 506.291 264.504 508.424 266.327C511.215 268.711 513.454 269.874 515.141 269.816ZM506.679 251.497C506.679 249.248 505.739 246.961 503.859 244.635C501.862 242.192 499.759 240.971 497.549 240.971C494.331 240.971 492.722 244.732 492.722 252.253V260.569L494.263 260.627C497.733 260.744 500.563 260.133 502.754 258.796C505.371 257.206 506.679 254.773 506.679 251.497Z" fill="white"/>
<path d="M529.505 232.161C528.439 233.75 527.896 235.97 527.876 238.819C528.419 238.819 529.243 238.839 530.348 238.878C531.472 238.916 532.306 238.936 532.849 238.936C535.776 238.936 538.218 238.393 540.176 237.307L540.758 238.092C538.567 240.244 535.718 241.32 532.209 241.32C531.763 241.32 531.046 241.31 530.057 241.291C529.088 241.252 528.342 241.233 527.818 241.233C527.818 242.706 527.799 244.945 527.76 247.95C527.741 250.935 527.731 253.174 527.731 254.667C527.731 255.035 527.721 255.665 527.702 256.557C527.683 257.448 527.673 258.136 527.673 258.621C527.673 264.592 529.166 268.188 532.151 269.409C533.74 267.393 534.642 264.64 534.855 261.151L539.973 261.936C539.275 268.314 536.057 271.502 530.319 271.502C527.993 271.502 525.948 270.775 524.184 269.322C522.342 267.81 521.363 265.91 521.247 263.622C521.111 260.637 521.063 256.906 521.101 252.428C521.198 244.712 521.247 240.981 521.247 241.233C520.956 241.233 520.491 241.223 519.851 241.204C519.231 241.184 518.766 241.175 518.455 241.175C516.905 241.175 515.548 241.582 514.385 242.396L513.977 242.338C514.307 240.69 514.569 239.701 514.763 239.372C515.034 238.926 515.577 238.703 516.391 238.703C516.604 238.703 517.234 238.732 518.281 238.79C519.347 238.848 520.336 238.878 521.247 238.878C521.324 237.559 521.45 236.464 521.625 235.592L529.04 231.55L529.505 232.161Z" fill="white"/>
<path d="M560.792 249.404L559.832 248.822C559.949 248.299 560.007 247.853 560.007 247.484C560.007 246.651 558.631 245.372 555.878 243.646C553.222 241.96 551.419 241.117 550.47 241.117C547.891 241.117 546.602 242.687 546.602 245.827C546.602 247.203 548.483 248.832 552.243 250.712C554.531 251.72 556.818 252.718 559.106 253.707C561.761 254.909 563.322 255.694 563.787 256.062C565.086 257.09 565.735 258.65 565.735 260.744C565.735 264.349 564.301 267.102 561.432 269.002C558.95 270.649 555.82 271.473 552.04 271.473C545.526 271.473 542.241 269.283 542.182 264.902L542.153 263.826L542.182 263.041L549.365 262.488C549.035 264.272 548.87 265.415 548.87 265.919C548.87 267.044 549.345 268.052 550.295 268.944C551.245 269.816 552.292 270.252 553.435 270.252C555.277 270.252 556.721 269.612 557.768 268.333C558.737 267.131 559.222 265.6 559.222 263.739C559.222 262.072 557.778 260.589 554.889 259.29C552.214 258.146 549.549 257.012 546.893 255.888C544.005 254.298 542.56 252.321 542.56 249.956C542.56 247.165 543.443 244.829 545.207 242.948C546.156 241.96 547.785 240.923 550.092 239.837C552.418 238.732 554.24 238.18 555.558 238.18C556.586 238.18 558.165 238.81 560.298 240.07C561.965 241.039 563.438 242.037 564.717 243.065L560.792 249.404Z" fill="white"/>
<path d="M116.852 244.743C116.473 246.747 116.117 248.74 115.783 250.723C113.949 261.632 113.636 272.61 114.843 283.658C105.698 286.004 96.6633 288.358 87.2665 289.828C82.8159 290.523 78.6125 290.619 74.6564 290.115C65.0495 288.892 57.0595 282.419 52.896 273.99C49.0228 266.143 49.3298 257.101 52.3943 249.031C55.521 240.79 60.5226 233.059 67.1514 227.352C70.1604 224.765 73.2357 223.709 77.1687 224.883C79.215 225.492 81.2924 226.35 83.4008 227.456C90.5765 231.223 97.8195 235.262 105.13 239.572C108.009 241.269 111.916 242.993 116.852 244.743Z" fill="white"/>
<path d="M342.245 257.609L342.403 244.395C346.956 244.179 351.532 243.984 356.13 243.81C357.878 243.745 359.586 243.799 361.255 243.974C364.496 244.312 366.543 245.783 367.153 249.129C368.016 253.87 368.721 258.891 368.476 263.774C368.31 267.045 367.088 269.689 363.594 270.548C362.058 270.926 360.606 271.181 359.238 271.313C356.897 271.537 355.329 268.879 354.393 267.056C353.462 265.241 352.528 263.485 351.593 261.788C350.202 259.263 348.009 257.915 345.014 257.745C344.118 257.695 343.195 257.649 342.245 257.609Z" fill="white"/>
<path d="M342.399 244.4L342.241 257.613C339.391 257.711 335.288 257.954 329.932 258.341C298.655 260.607 267.437 262.857 236.278 265.089C235.911 259.658 235.701 254.224 235.648 248.785L342.399 244.4Z" fill="#87B0B4"/>
<path d="M116.852 244.743C119.635 245.675 122.161 246.421 124.43 246.981C131.327 248.687 138.483 249.956 145.895 250.79C145.87 253.133 145.948 255.765 146.129 258.686C146.48 264.403 147.061 269.871 147.873 275.09L114.843 283.658C113.636 272.61 113.949 261.632 115.783 250.723C116.117 248.74 116.473 246.747 116.852 244.743Z" fill="#87B0B4"/>
<path d="M235.651 248.782C235.704 254.221 235.914 259.655 236.281 265.086C235.535 265.132 234.845 265.18 234.216 265.225C219.402 266.295 203.992 267.412 187.987 268.574C184.838 268.803 181.427 268.727 178.556 269.076C172.641 269.799 167.915 270.441 164.377 271.002C163.155 271.197 161.301 271.604 158.814 272.225C155.209 273.125 151.562 274.08 147.873 275.09C147.061 269.871 146.48 264.403 146.129 258.686C145.948 255.765 145.87 253.133 145.895 250.79C150.447 251.246 153.796 251.534 155.944 251.657C157.997 251.774 160.458 251.771 163.325 251.648C168.108 251.445 172.982 251.246 177.947 251.05C197.032 250.3 216.117 249.525 235.201 248.724C235.271 248.721 235.342 248.737 235.407 248.771C235.505 248.823 235.587 248.825 235.651 248.782Z" fill="white"/>
<path d="M181.912 264.976C182.064 265.99 180.706 266.282 180.004 266.369C171.186 267.495 161.879 268.647 152.085 269.827C151.785 269.862 151.483 269.788 151.234 269.618C150.986 269.448 150.808 269.194 150.734 268.902C150.653 268.585 150.892 268.228 151.453 267.832C151.58 267.741 151.727 267.68 151.883 267.656C161.464 266.161 170.857 264.935 180.06 263.976C180.821 263.895 181.78 264.11 181.912 264.976Z" fill="#87B0B4"/>
<path d="M59.9354 271.996C63.7144 275.845 68.1743 278.645 73.2164 280.262C83.8482 283.671 95.6462 283.269 106.097 279.907C106.851 279.664 107.395 279.9 107.73 280.615C107.914 281.005 107.629 281.489 106.877 282.067C106.772 282.149 106.654 282.211 106.529 282.251C97.4512 285.168 88.2785 285.821 79.0112 284.209C71.1909 282.851 63.7336 279.597 58.5172 273.632C58.1421 273.201 58.0442 272.715 58.2236 272.173C58.2871 271.981 58.4021 271.844 58.5688 271.763C59.0793 271.51 59.5348 271.588 59.9354 271.996Z" fill="#87B0B4"/>
</svg>
