<svg width="116" height="55" viewBox="0 0 116 55" fill="none" xmlns="http://www.w3.org/2000/svg">
<path d="M75.6142 33.5555C78.1964 29.7804 82.7995 20.5952 89.4235 6H92.7917C98.3491 20.7075 102.615 29.8857 105.591 33.5345H98.6017C98.3772 32.1872 97.9562 30.8961 97.3387 29.6611C95.5985 31.9066 93.2127 33.0994 90.1814 33.2398C87.1501 33.3801 84.5398 32.075 82.3505 29.3243C81.5084 30.5032 81.1716 31.9066 81.34 33.5345L75.6142 33.5555ZM84.0345 25.451C85.6625 29.7173 87.6342 31.8574 89.9498 31.8715C92.2794 31.8715 94.2091 30.012 95.7388 26.293C93.8863 18.9954 92.2023 14.0555 90.6866 11.4732C89.0587 13.9432 86.8413 18.6024 84.0345 25.451Z" fill="#00181B"/>
<path d="M20.9593 9.55256C21.3671 9.25868 21.9344 8.77463 22.6612 8.10042C24.895 6.82115 26.7388 6.18152 28.1925 6.18152C29.8412 6.18152 31.2861 6.52727 32.5271 7.21876C34.034 8.04856 34.7874 9.20682 34.7874 10.6935C34.7874 13.1483 33.2451 15.4303 30.1603 17.5394C36.0639 19.441 39.0156 22.2761 39.0156 26.0448C39.0156 29.1392 37.3226 31.6372 33.9365 33.5389C31.0645 35.1639 27.9 35.9764 24.4429 35.9764C22.4219 35.9764 19.2574 35.4664 14.9494 34.4465C15.1976 32.9943 15.3572 31.3779 15.4281 29.5973C15.4635 28.3526 15.4635 26.7276 15.4281 24.7223C15.3572 22.1465 15.3217 20.5214 15.3217 19.8472C15.3217 16.4589 15.304 14.5141 15.2685 14.0127C15.0912 11.7308 14.5683 9.88967 13.6996 8.48939L12.3699 8.15228V7.55587L19.5233 6C20.1793 7.03725 20.6579 8.22143 20.9593 9.55256ZM21.1721 32.2423C22.7676 33.003 23.8934 33.5129 24.5493 33.7722C25.9498 34.3427 27.1199 34.6625 28.0595 34.7317C29.7969 34.0575 30.9936 33.4351 31.6495 32.8647C32.6423 32.0003 33.1387 30.8161 33.1387 29.3121C33.1387 27.324 32.1991 25.3533 30.3199 23.3998C28.7421 21.7575 26.8717 20.4523 24.7089 19.4842H21.1721C26.916 18.5334 30.5592 16.3725 30.5592 14.0387C30.5592 12.7248 29.7171 11.506 28.0329 10.3824C26.4728 9.34512 24.9925 8.83514 23.592 8.85242L21.1721 11.1862V32.2423Z" fill="#00181B"/>
<path d="M57.2522 33.2896C60.6684 30.8662 62.3766 27.4418 62.3766 23.0165L62.2914 6H68.6426L68.2709 26.4145C68.2532 27.714 68.3948 28.8818 68.6958 29.9179C69.1206 31.4281 69.8109 32.1832 70.7668 32.1832C71.05 32.1832 71.3332 32.113 71.6164 31.9725V32.9471L66.3858 35.4232C64.775 33.9832 63.5271 32.3325 62.6421 30.4711C61.3853 31.595 59.8542 32.7276 58.0487 33.8691C55.8007 35.274 54.128 35.9764 53.0305 35.9764C49.8089 35.9764 47.2423 35.0369 45.3306 33.1579C43.4366 31.2613 42.4896 28.7325 42.4896 25.5716C42.4896 24.2194 42.5958 22.1911 42.8083 19.4867C43.0384 16.7824 43.1534 14.7541 43.1534 13.4019C43.1534 9.60876 42.649 7.72974 41.64 7.76487V6H49.393C48.8442 17.9589 48.5699 24.114 48.5699 24.4652C48.5699 27.0116 49.3841 29.075 51.0126 30.6554C52.5526 32.1657 54.6324 33.0437 57.2522 33.2896Z" fill="#00181B"/>
<path d="M9 19.3228H102.26V22.6535H9V19.3228Z" fill="#00181B"/>
<path d="M77.1977 40.7487L77.0233 40.6431C77.0445 40.548 77.055 40.467 77.055 40.4001C77.055 40.2486 76.805 40.0162 76.3049 39.7027C75.8224 39.3963 75.4948 39.2431 75.3223 39.2431C74.8538 39.2431 74.6196 39.5284 74.6196 40.0989C74.6196 40.349 74.9613 40.6448 75.6445 40.9865C76.0601 41.1696 76.4757 41.351 76.8913 41.5306C77.3738 41.749 77.6573 41.8916 77.7418 41.9585C77.9778 42.1452 78.0958 42.4287 78.0958 42.8091C78.0958 43.4642 77.8352 43.9643 77.3139 44.3094C76.8631 44.6088 76.2943 44.7585 75.6075 44.7585C74.4242 44.7585 73.8272 44.3605 73.8166 43.5645L73.8113 43.3691L73.8166 43.2264L75.1215 43.126C75.0616 43.4501 75.0317 43.6579 75.0317 43.7494C75.0317 43.9537 75.118 44.1368 75.2906 44.2988C75.4631 44.4573 75.6533 44.5366 75.8611 44.5366C76.1957 44.5366 76.4581 44.4204 76.6483 44.1879C76.8244 43.9695 76.9124 43.6913 76.9124 43.3532C76.9124 43.0503 76.65 42.7809 76.1253 42.5449C75.6392 42.3371 75.155 42.1311 74.6725 41.9268C74.1477 41.638 73.8853 41.2788 73.8853 40.8491C73.8853 40.342 74.0456 39.9176 74.3661 39.5759C74.5386 39.3963 74.8345 39.2079 75.2536 39.0107C75.6762 38.8099 76.0073 38.7095 76.2468 38.7095C76.4334 38.7095 76.7205 38.824 77.1079 39.0529C77.4108 39.229 77.6784 39.4104 77.9109 39.5971L77.1977 40.7487Z" fill="#00181B"/>
<path d="M79.987 46.7712L78.8724 47.0565V40.828C78.8724 40.592 78.8424 40.3191 78.7826 40.0091C78.7051 39.5971 78.6047 39.3805 78.4814 39.3593C78.4603 39.3558 78.4127 39.3576 78.3388 39.3646L78.2912 39.2009L79.7282 38.7941L80.0346 39.782C80.2318 39.5671 80.547 39.3276 80.9802 39.0635C81.4557 38.7782 81.8114 38.6356 82.0474 38.6356C82.4066 38.6356 82.7923 38.8011 83.2043 39.1322C83.5706 39.4245 83.8488 39.7485 84.039 40.1042C84.2433 40.4846 84.3454 40.9231 84.3454 41.4197C84.3454 42.0536 84.2134 42.6189 83.9492 43.1155C83.759 43.4677 83.3787 43.8199 82.8081 44.1721C82.2376 44.5242 81.7498 44.7144 81.3448 44.7426L81.2497 44.7479C80.9644 44.7655 80.5664 44.6105 80.0557 44.283L79.987 46.7712ZM80.098 43.3057C80.3164 43.6543 80.8094 44.0065 81.5772 44.3622L81.6564 44.3675C82.1988 44.3816 82.6126 44.0805 82.8979 43.4641C83.1163 42.9887 83.2255 42.441 83.2255 41.8212C83.2255 40.7329 82.8099 39.951 81.9787 39.4756C81.704 39.3206 81.4856 39.2431 81.3236 39.2431C81.1898 39.2431 81.0736 39.2695 80.975 39.3224C80.6263 39.5161 80.3868 39.7644 80.2565 40.0672C80.1508 40.3138 80.098 40.6589 80.098 41.1027V43.3057Z" fill="#00181B"/>
<path d="M90.6691 41.6363C90.6691 43.1613 89.8608 44.1456 88.2442 44.5894C87.7899 44.7127 87.48 44.7743 87.3144 44.7743C87.2299 44.7743 87.0961 44.7461 86.9129 44.6898C86.2508 44.489 85.7384 44.1404 85.3756 43.6438C85.0164 43.1472 84.8367 42.552 84.8367 41.8581C84.8367 40.717 85.3721 39.8454 86.4427 39.2431C86.6118 39.148 86.8724 39.0248 87.2246 38.8733C87.6332 38.7007 87.892 38.6145 88.0012 38.6145C88.2759 38.6145 88.6263 38.7236 89.0525 38.942C89.4505 39.1463 89.7516 39.3576 89.9559 39.5759C90.4313 40.0901 90.6691 40.7769 90.6691 41.6363ZM88.3974 44.2724C88.8271 44.1985 89.1441 43.9343 89.3483 43.48C89.5103 43.1278 89.5913 42.6999 89.5913 42.1963C89.5913 41.5271 89.4698 40.9847 89.2268 40.5691C88.9732 40.1289 88.5489 39.7714 87.9537 39.4967C87.5979 39.3312 87.3003 39.2484 87.0608 39.2484C86.6769 39.2484 86.3899 39.539 86.1997 40.1201C86.0624 40.5321 85.9937 40.9812 85.9937 41.4672C85.9937 42.3407 86.1856 42.9834 86.5695 43.3955C86.9112 43.7653 87.5205 44.0576 88.3974 44.2724Z" fill="#00181B"/>
<path d="M96.8078 44.4573V44.637C96.5014 44.7497 96.1527 44.806 95.7618 44.806C95.6315 44.806 95.4976 44.8007 95.3603 44.7902C95.0362 44.7655 94.6876 44.5982 94.3143 44.2883C94.1804 44.1791 93.8951 43.9009 93.4584 43.4536C93.1767 43.1613 92.9759 43.0169 92.8562 43.0204H92.7347L92.6818 44.5154L91.4773 44.7585C91.4809 44.445 91.4879 43.9167 91.4985 43.1736C91.509 42.4939 91.5143 41.9638 91.5143 41.5834C91.5143 41.2207 91.5073 40.7928 91.4932 40.2997C91.4861 39.9616 91.4721 39.7538 91.4509 39.6763C91.391 39.465 91.2466 39.3347 91.0177 39.2854V39.1533L92.46 38.7465C92.5057 38.8909 92.5639 39.1146 92.6343 39.4175C93.5112 38.8363 94.0853 38.5458 94.3565 38.5458C94.9059 38.5458 95.3937 38.7747 95.8199 39.2326C96.246 39.6869 96.4591 40.1888 96.4591 40.7382C96.4591 41.2911 96.2672 41.7278 95.8833 42.0483C95.7741 42.1364 95.3444 42.3794 94.5942 42.7774C94.869 43.1437 95.2 43.4923 95.5874 43.8234C96.0946 44.2566 96.5014 44.4679 96.8078 44.4573ZM95.2705 41.1291C95.2705 40.7206 95.0996 40.305 94.758 39.8824C94.3953 39.4386 94.0131 39.2167 93.6116 39.2167C93.027 39.2167 92.7347 39.9 92.7347 41.2665V42.7774L93.0147 42.7879C93.6451 42.8091 94.1593 42.6981 94.5573 42.4551C95.0327 42.1663 95.2705 41.7243 95.2705 41.1291Z" fill="#00181B"/>
<path d="M99.4175 37.616C99.2238 37.9048 99.1252 38.308 99.1217 38.8258C99.2203 38.8258 99.37 38.8293 99.5707 38.8363C99.775 38.8434 99.9264 38.8469 100.025 38.8469C100.557 38.8469 101.001 38.7483 101.356 38.5511L101.462 38.6937C101.064 39.0846 100.546 39.2801 99.9088 39.2801C99.8278 39.2801 99.6975 39.2783 99.5179 39.2748C99.3418 39.2678 99.2062 39.2643 99.1111 39.2643C99.1111 39.5319 99.1076 39.9387 99.1006 40.4846C99.097 41.027 99.0953 41.4338 99.0953 41.7049C99.0953 41.7719 99.0935 41.8863 99.09 42.0483C99.0865 42.2103 99.0847 42.3354 99.0847 42.4234C99.0847 43.5082 99.3559 44.1615 99.8983 44.3834C100.187 44.0171 100.351 43.517 100.39 42.883L101.319 43.0257C101.193 44.1844 100.608 44.7637 99.5654 44.7637C99.1428 44.7637 98.7712 44.6317 98.4507 44.3675C98.1162 44.0928 97.9383 43.7477 97.9172 43.3321C97.8925 42.7897 97.8837 42.1117 97.8908 41.2982C97.9084 39.8964 97.9172 39.2185 97.9172 39.2643C97.8644 39.2643 97.7798 39.2625 97.6636 39.259C97.5509 39.2554 97.4664 39.2537 97.41 39.2537C97.1283 39.2537 96.8817 39.3276 96.6704 39.4756L96.5965 39.465C96.6563 39.1656 96.7039 38.986 96.7391 38.9261C96.7884 38.8451 96.887 38.8046 97.0349 38.8046C97.0737 38.8046 97.1881 38.8099 97.3783 38.8205C97.572 38.8311 97.7517 38.8363 97.9172 38.8363C97.9313 38.5968 97.9542 38.3979 97.9859 38.2394L99.333 37.505L99.4175 37.616Z" fill="#00181B"/>
<path d="M105.102 40.7487L104.928 40.6431C104.949 40.548 104.959 40.467 104.959 40.4001C104.959 40.2486 104.709 40.0162 104.209 39.7027C103.727 39.3963 103.399 39.2431 103.226 39.2431C102.758 39.2431 102.524 39.5284 102.524 40.0989C102.524 40.349 102.865 40.6448 103.549 40.9865C103.964 41.1696 104.38 41.351 104.796 41.5306C105.278 41.749 105.562 41.8916 105.646 41.9585C105.882 42.1452 106 42.4287 106 42.8091C106 43.4642 105.739 43.9643 105.218 44.3094C104.767 44.6088 104.199 44.7585 103.512 44.7585C102.328 44.7585 101.731 44.3605 101.721 43.5645L101.716 43.3691L101.721 43.2264L103.026 43.126C102.966 43.4501 102.936 43.6579 102.936 43.7494C102.936 43.9537 103.022 44.1368 103.195 44.2988C103.367 44.4573 103.558 44.5366 103.765 44.5366C104.1 44.5366 104.362 44.4204 104.552 44.1879C104.729 43.9695 104.817 43.6913 104.817 43.3532C104.817 43.0503 104.554 42.7809 104.029 42.5449C103.543 42.3371 103.059 42.1311 102.577 41.9268C102.052 41.638 101.79 41.2788 101.79 40.8491C101.79 40.342 101.95 39.9176 102.27 39.5759C102.443 39.3963 102.739 39.2079 103.158 39.0107C103.58 38.8099 103.912 38.7095 104.151 38.7095C104.338 38.7095 104.625 38.824 105.012 39.0529C105.315 39.229 105.583 39.4104 105.815 39.5971L105.102 40.7487Z" fill="#00181B"/>
<path d="M24.445 39.902C24.3763 40.266 24.3117 40.6282 24.251 40.9885C23.9177 42.9704 23.8608 44.965 24.0802 46.9722C22.4186 47.3985 20.7772 47.8262 19.0699 48.0932C18.2613 48.2196 17.4976 48.2369 16.7789 48.1453C15.0334 47.9231 13.5818 46.7472 12.8254 45.2157C12.1217 43.79 12.1774 42.1472 12.7342 40.6811C13.3023 39.1838 14.211 37.7791 15.4153 36.7424C15.962 36.2723 16.5207 36.0804 17.2353 36.2937C17.6071 36.4044 17.9845 36.5602 18.3676 36.7613C19.6713 37.4457 20.9872 38.1794 22.3154 38.9624C22.8385 39.2709 23.5483 39.5841 24.445 39.902Z" fill="#00181B"/>
<path d="M65.3954 42.2395L65.4242 39.8388C66.2513 39.7995 67.0826 39.7641 67.9181 39.7325C68.2356 39.7206 68.5461 39.7306 68.8493 39.7622C69.4382 39.8237 69.81 40.0909 69.9207 40.6988C70.0775 41.5601 70.2056 42.4725 70.1611 43.3596C70.131 43.954 69.909 44.4344 69.2743 44.5904C68.9951 44.6591 68.7313 44.7054 68.4828 44.7293C68.0575 44.7701 67.7726 44.2871 67.6026 43.9559C67.4333 43.6262 67.2637 43.3072 67.0938 42.9988C66.8411 42.54 66.4427 42.2952 65.8985 42.2643C65.7358 42.2551 65.568 42.2469 65.3954 42.2395Z" fill="#00181B"/>
<path d="M65.4235 39.8397L65.3947 42.2403C64.8768 42.2581 64.1314 42.3022 63.1584 42.3726C57.4759 42.7843 51.804 43.1929 46.1429 43.5985C46.0762 42.6119 46.038 41.6245 46.0284 40.6364L65.4235 39.8397Z" fill="#00181B"/>
<path d="M24.445 39.902C24.9507 40.0713 25.4097 40.2068 25.8219 40.3085C27.075 40.6185 28.3751 40.8491 29.7218 41.0006C29.7173 41.4264 29.7314 41.9046 29.7643 42.4352C29.828 43.4739 29.9336 44.4674 30.0812 45.4156L24.0802 46.9722C23.8608 44.965 23.9177 42.9704 24.251 40.9885C24.3117 40.6282 24.3763 40.266 24.445 39.902Z" fill="#00181B"/>
<path d="M46.0289 40.6358C46.0386 41.6239 46.0767 42.6113 46.1435 43.598C46.0079 43.6063 45.8826 43.615 45.7684 43.6233C43.0768 43.8177 40.2771 44.0206 37.3691 44.2318C36.7971 44.2733 36.1773 44.2594 35.6558 44.3229C34.5811 44.4542 33.7224 44.5709 33.0797 44.6729C32.8577 44.7082 32.5208 44.7822 32.069 44.895C31.4139 45.0585 30.7513 45.2321 30.0812 45.4156C29.9336 44.4674 29.828 43.4739 29.7643 42.4352C29.7314 41.9046 29.7173 41.4264 29.7218 41.0006C30.5487 41.0834 31.1573 41.1358 31.5475 41.1581C31.9205 41.1794 32.3675 41.1788 32.8885 41.1565C33.7575 41.1197 34.643 41.0835 35.5451 41.0479C39.0126 40.9116 42.48 40.7708 45.9472 40.6253C45.9599 40.6247 45.9729 40.6277 45.9848 40.6338C46.0025 40.6432 46.0174 40.6436 46.0289 40.6358Z" fill="#00181B"/>
<path d="M36.2655 43.578C36.2931 43.7622 36.0463 43.8152 35.9188 43.8311C34.3167 44.0357 32.6259 44.245 30.8463 44.4593C30.7919 44.4657 30.7369 44.4522 30.6918 44.4213C30.6467 44.3905 30.6144 44.3443 30.6009 44.2914C30.5861 44.2337 30.6297 44.1689 30.7316 44.0969C30.7547 44.0803 30.7814 44.0693 30.8096 44.0649C32.5504 43.7934 34.2569 43.5705 35.9289 43.3963C36.0673 43.3817 36.2414 43.4207 36.2655 43.578Z" fill="#00181B"/>
<path d="M14.1043 44.8534C14.7909 45.5527 15.6012 46.0614 16.5172 46.3552C18.4489 46.9745 20.5924 46.9015 22.4911 46.2907C22.628 46.2466 22.7269 46.2895 22.7879 46.4194C22.8211 46.4902 22.7695 46.5782 22.6329 46.6832C22.6138 46.698 22.5924 46.7093 22.5696 46.7165C20.9203 47.2466 19.2538 47.3652 17.5701 47.0723C16.1492 46.8256 14.7944 46.2344 13.8466 45.1506C13.7785 45.0724 13.7607 44.984 13.7933 44.8855C13.8048 44.8507 13.8257 44.8259 13.856 44.8111C13.9487 44.7652 14.0315 44.7793 14.1043 44.8534Z" fill="#00181B"/>
</svg>
